<svg xmlns="http://www.w3.org/2000/svg" fill="#000000" height="24" width="24"><rect id="backgroundrect" width="100%" height="100%" x="0" y="0" fill="none" stroke="none"/>
    
    
<g class="currentLayer"><title>Layer 1</title><path d="M0,0 h24 v24 H0 z" fill="none" id="svg_1" class=""/><path d="M11,17 h2 v-6 h-2 v6 zm1,-15 C6.48,2 2,6.48 2,12 s4.48,10 10,10 s10,-4.48 10,-10 S17.52,2 12,2 zm0,18 c-4.41,0 -8,-3.59 -8,-8 s3.59,-8 8,-8 s8,3.59 8,8 s-3.59,8 -8,8 zM11,9 h2 V7 h-2 v2 z" id="svg_2" class="selected" fill="#ffffff" fill-opacity="1"/></g></svg>